<svg width="25" height="25" viewBox="0 0 25 25" fill="none" xmlns="http://www.w3.org/2000/svg">
<path d="M6.24967 14.61H14.4007V13.0475H6.24967V14.61ZM6.24967 11.2246H18.7497V9.66211H6.24967V11.2246ZM6.24967 7.83919H18.7497V6.27669H6.24967V7.83919ZM2.08301 22.9173V3.64648C2.08301 3.24718 2.23926 2.88694 2.55176 2.56576C2.86426 2.24457 3.22884 2.08398 3.64551 2.08398H21.3538C21.7531 2.08398 22.1134 2.24457 22.4346 2.56576C22.7558 2.88694 22.9163 3.24718 22.9163 3.64648V17.1882C22.9163 17.5875 22.7558 17.9477 22.4346 18.2689C22.1134 18.5901 21.7531 18.7507 21.3538 18.7507H6.24967L2.08301 22.9173ZM3.64551 19.1413L5.59863 17.1882H21.3538V3.64648H3.64551V19.1413Z" fill="#023892"/>
</svg>
